<?xml version="1.0" encoding="utf-8"?>
<!-- Generator: Adobe Illustrator 27.4.0, SVG Export Plug-In . SVG Version: 6.00 Build 0)  -->
<svg version="1.1" xmlns="http://www.w3.org/2000/svg" xmlns:xlink="http://www.w3.org/1999/xlink" x="0px" y="0px"
	 viewBox="0 0 3768.9 2403.6" style="enable-background:new 0 0 3768.9 2403.6;" xml:space="preserve">
<style type="text/css">
	.st0{fill:url(#SVGID_1_);}
	.st1{font-family:'GothamBold';}
	.st2{font-size:215.1452px;}
	.st3{fill:#3FA12A;}
	.st4{fill:#E62828;}
	.st5{fill:#2981EF;}
	.st6{fill:#FABF00;}
	.st7{fill:#81B8EE;}
	.st8{fill:#9FA19E;}
	.st9{fill:#915121;}
	.st10{fill:#AEA981;}
	.st11{fill:#EE4179;}
	.st12{fill:#91A11A;}
	.st13{fill:#9241CC;}
	.st14{fill:#FF7F00;}
	.st15{fill:#3FD9FF;}
	.st16{fill:#704070;}
	.st17{fill:#50413E;}
	.st18{fill:#60A1B7;}
	.st19{fill:#5160E1;}
	.st20{fill:#EE70EE;}
	.st21{fill:#FFFFFF;}
</style>
<g id="Layer_1">
	
		<image style="overflow:visible;opacity:0.5;" width="900" height="360" xlink:href="409171AE.jpg"  transform="matrix(4.2177 0 0 6.8449 -13.5321 -30.3017)">
	</image>
	<g>
		<linearGradient id="SVGID_1_" gradientUnits="userSpaceOnUse" x1="1485.8682" y1="-423.6872" x2="2283.0203" y2="957.0208">
			<stop  offset="0" style="stop-color:#C7C8CA"/>
			<stop  offset="1" style="stop-color:#888A8C"/>
		</linearGradient>
		<path class="st0" d="M616.9,430.1c-43.5,0-84.5-17-115.4-48c-31-31-48-72-48-115.4c0-43.5,17-84.5,48-115.4c31-31,72-48,115.4-48
			H3152c43.5,0,84.5,17,115.4,48c31,31,48,72,48,115.4c0,43.5-17,84.5-48,115.4c-31,31-72,48-115.4,48H616.9z"/>
		<path d="M3152,110.2c86,0,156.4,70.4,156.4,156.4v0c0,86-70.4,156.4-156.4,156.4H616.9c-86,0-156.4-70.4-156.4-156.4v0
			c0-86,70.4-156.4,156.4-156.4H3152 M3152,96.2H616.9c-22.9,0-45.2,4.5-66.2,13.5c-20.3,8.6-38.5,20.9-54.2,36.6
			s-28,33.9-36.6,54.2c-8.9,21-13.5,43.3-13.5,66.2c0,22.9,4.5,45.2,13.5,66.2c8.6,20.3,20.9,38.5,36.6,54.2
			c15.7,15.7,33.9,28,54.2,36.6c21,8.9,43.3,13.5,66.2,13.5H3152c22.9,0,45.2-4.5,66.2-13.5c20.3-8.6,38.5-20.9,54.2-36.6
			s28-33.9,36.6-54.2c8.9-21,13.5-43.3,13.5-66.2s-4.5-45.2-13.5-66.2c-8.6-20.3-20.9-38.5-36.6-54.2s-33.9-28-54.2-36.6
			C3197.2,100.8,3174.9,96.2,3152,96.2L3152,96.2z"/>
	</g>
	<text transform="matrix(1 0 0 1 585.847 336.479)" class="st1 st2">Pokémon Type Icon Set</text>
</g>
<g id="Circles">
	<circle class="st3" cx="438.9" cy="772.5" r="216"/>
	<circle class="st4" cx="991.8" cy="772.5" r="216"/>
	<circle class="st5" cx="1558.5" cy="772.5" r="216"/>
	<circle class="st6" cx="2125.1" cy="772.5" r="216"/>
	<circle class="st7" cx="2691.7" cy="772.5" r="216"/>
	<circle class="st8" cx="3258.4" cy="772.5" r="216"/>
	<circle class="st9" cx="438.9" cy="1385.4" r="216"/>
	<circle class="st10" cx="991.8" cy="1385.4" r="216"/>
	<circle class="st11" cx="1558.5" cy="1385.4" r="216"/>
	<circle class="st12" cx="2125.1" cy="1385.4" r="216"/>
	<circle class="st13" cx="2691.7" cy="1385.4" r="216"/>
	<circle class="st14" cx="3258.4" cy="1385.4" r="216"/>
	<circle class="st15" cx="438.9" cy="1998.3" r="216"/>
	<circle class="st16" cx="991.8" cy="1998.3" r="216"/>
	<circle class="st17" cx="1558.5" cy="1998.3" r="216"/>
	<circle class="st18" cx="2125.1" cy="1998.3" r="216"/>
	<circle class="st19" cx="2691.7" cy="1998.3" r="216"/>
	<circle class="st20" cx="3258.4" cy="1998.3" r="216"/>
</g>
<g id="Icons">
	<g>
		<path class="st21" d="M543.7,685.4c-40.6,51.2-74.4,117.3-104,192.7c-0.4,0.9,0.3,2,1.3,2h71.5c0.6,0,1.2-0.4,1.4-1.1
			c13.6-49.2,23.8-116.3,32.3-192.5C546.4,685.1,544.6,684.3,543.7,685.4z"/>
		<path class="st21" d="M420.5,855.2c40.8-54.7,60.3-127.1,58.3-217.4c0-1.3-1.7-1.9-2.6-0.9c-15,17.6-30.8,50.7-47.3,96.7
			c0,0.1,0,0.1,0,0.2c-11.4,48.3-14,87.4-11,120.7C418,855.8,419.7,856.3,420.5,855.2z"/>
		<path class="st21" d="M309.7,882h76.3c0.7,0,1.3-0.5,1.4-1.2c12.2-70.6,17.3-136,13.4-194.8c-0.1-1.4-1.9-1.9-2.7-0.7
			c-34.9,56.4-64.5,121.9-89.9,194.7C308.1,881,308.8,882,309.7,882z"/>
	</g>
	<path class="st21" d="M952.5,873.3c-24.3-14-38.1-29.1-41.7-70.6c0-0.1,0-0.2,0-0.3c3.7-28.3-0.4-32.8,49.3-79.1
		c0,0,0.1-0.1,0.1-0.1c15.4-11.2,24.8-37.3,4.5-57.5c-0.9-0.9-0.3-2.4,0.9-2.5c19.5-1.4,39.3,2.4,51.3,23.9c0.1,0.1,0.1,0.2,0.1,0.4
		c4.5,16.2-0.1,27.4-6.2,43.6c-8.8,25.8-6.3,36.3,2.5,41.4c1.2,0.7,2.5-0.4,2.1-1.7c-9-27.7,4.4-37.4,27.6-40.3
		c1.3-0.2,2.2,1.4,1.2,2.4c-10.3,10.9-1.3,32.5,19.7,54.8c0.1,0.1,0.2,0.2,0.2,0.3c30.7,56.2-27.4,96.8-75.8,94
		c-1.5-0.1-1.9-2-0.6-2.7c16.5-8.9,44.1-32.1,19.2-52.8c-0.1-0.1-0.1-0.1-0.2-0.1c-23-13.7-40.9-33-42.7-64.8
		c-0.1-1.3-1.8-1.9-2.6-0.8c-28.2,36.5-26.6,75.2-7.1,110.8C955.2,872.7,953.8,874.1,952.5,873.3z"/>
	<path class="st21" d="M1623.7,788.3c0-0.1-0.1-0.2-0.2-0.3c-29.6-51.7-46-91.5-61.6-135.5c-1.1-3.2-5.6-3.2-6.8,0
		c-15.6,44-32,83.8-61.6,135.5c-0.1,0.1-0.1,0.2-0.2,0.3c-30.9,67.5,28.9,107.4,65.2,106.5C1594.7,895.8,1654.6,855.8,1623.7,788.3z
		 M1613.4,841.4c-10.4,17.7-28.8,33.5-55.3,35.1c0.3,0-0.3,0,0,0c-22.3-0.7-42.2-13.5-53.6-34c-1.9-3.5,1.5-7.5,5.3-6.1
		c31.4,11.8,68.3,10.6,98.2-1.2C1611.9,833.7,1615.5,837.8,1613.4,841.4z"/>
	<path class="st21" d="M2120.2,662.2c-23.7,31.1-45.7,67.1-66.5,106.7c-0.5,0.9-0.2,2.1,0.6,2.7c22,17.5,43.9,33.7,65.6,47.8
		c0.8,0.5,1.2,1.6,0.9,2.5l-19.5,58.9c-0.7,2.1,1.9,3.8,3.5,2.3l81.9-76.3c0.9-0.8,0.9-2.3,0-3.1c-12.9-12.6-25.5-23.5-37.5-32.2
		c-1-0.7-1.2-2.1-0.5-3.1l47.4-62c0.8-1,0.5-2.5-0.6-3.2l-72.7-41.4C2122,661.1,2120.8,661.4,2120.2,662.2z"/>
	<path class="st21" d="M2595.4,872.8c4.2-58.5,17.9-122.1,52.8-164.5c0.3-0.3,0.7-0.6,1.1-0.7l136-40c1.7-0.5,3.2,1.1,2.7,2.7
		c-12.2,38.8-49.2,67.5-102.4,89.5l68.8-13.7c1.9-0.4,3.3,1.8,2.2,3.4c-18.8,27.4-51.5,40.5-89.2,48.5l53.6-2.8
		c1.9-0.1,3,2.2,1.7,3.6c-20.2,21.8-47.2,28.5-83.6,29.3l-35.8,47.7C2600.6,879.2,2595.1,877.1,2595.4,872.8z"/>
	<g>
		<path class="st21" d="M2729.6,1455.2c-1.4-19.4-17.5-34.6-37.2-34.6c-19.7,0-35.8,15.2-37.2,34.6c-49.8,3.4-85.9,13.6-85.9,25.7
			c0,14.9,54.8,26.9,122.4,26.9c67.6,0,122.4-12,122.4-26.9C2814.2,1468.8,2778.7,1458.7,2729.6,1455.2z"/>
		<circle class="st21" cx="2648.6" cy="1313.2" r="50"/>
		<circle class="st21" cx="2743.1" cy="1374.7" r="31.1"/>
	</g>
	<g>
		<path class="st21" d="M1096.4,1339.1l-58.3-58.3c-1.4-1.4-3.2-2.1-5.1-2.1h-82.4c-1.9,0-3.7,0.8-5.1,2.1l-58.3,58.3
			c-1.4,1.4-2.1,3.2-2.1,5.1v82.4c0,1.9,0.8,3.7,2.1,5.1l58.3,58.3c1.4,1.4,3.2,2.1,5.1,2.1h82.4c1.9,0,3.7-0.8,5.1-2.1l58.3-58.3
			c1.4-1.4,2.1-3.2,2.1-5.1v-82.4C1098.5,1342.3,1097.7,1340.5,1096.4,1339.1z M1027.9,1298.9c29.8,0.5,46.4,15.4,47.8,46.8
			c0.1,1.3-1.5,2-2.5,1.1l-46.4-45.4C1026,1300.4,1026.6,1298.9,1027.9,1298.9z M978.5,1475.1c-53.2-1.6-78.1-29.4-78.3-80
			c0-1.3,1.6-1.9,2.5-1l76.9,78.5C980.5,1473.6,979.8,1475.1,978.5,1475.1z M1005.1,1475.1c-1.3,0-2-1.5-1.1-2.5l76.9-78.5
			c0.9-0.9,2.5-0.3,2.5,1C1083.2,1445.7,1058.3,1473.5,1005.1,1475.1z"/>
	</g>
	<path class="st21" d="M3364.8,724.4c5.5-6.8,8.8-15.4,8.8-24.8c0-21.8-17.6-39.4-39.4-39.4c-10.3,0-19.7,4-26.7,10.5
		c-15-6.7-31.6-10.5-49.1-10.5c-17.5,0-34.1,3.7-49.1,10.5c-7-6.5-16.4-10.5-26.7-10.5c-21.8,0-39.4,17.6-39.4,39.4
		c0,9.4,3.3,18,8.8,24.8c-8.8,16.7-13.8,35.8-13.8,56.1c0,66.4,53.9,120.3,120.3,120.3s120.3-53.9,120.3-120.3
		C3378.7,760.2,3373.7,741.1,3364.8,724.4z M3258.4,862.8c-45.5,0-82.4-36.9-82.4-82.4s36.9-82.4,82.4-82.4
		c45.5,0,82.4,36.9,82.4,82.4S3303.9,862.8,3258.4,862.8z"/>
	<g>
		<path class="st21" d="M536.4,1438.2l-0.8-0.5l-0.8,0.5c-0.4,0.2-0.7,0.4-1,0.5l-86.5,33.6c-2.3,0.9-4.8,1.4-7.3,1.4
			c-2.4,0-4.9-0.4-7.1-1.3l-88.9-33.7c-0.3-0.1-0.7-0.3-1-0.5l-0.8-0.5l-0.8,0.5c-2.7,1.7-4.3,4.8-3.9,8.1c0.3,3.3,2.4,6,5.5,7.1
			l88.9,33.7c2.6,1,5.4,1.5,8.2,1.5c0,0,0,0,0,0c2.9,0,5.7-0.5,8.3-1.6l86.5-33.6c3.1-1.2,5.1-3.9,5.4-7.2
			C540.6,1443,539.1,1439.9,536.4,1438.2z"/>
		<path class="st21" d="M343.5,1419.2l88.9,33.7c5,1.9,10.5,1.9,15.5-0.1l86.5-33.6c6-2.3,6.1-10.8,0.1-13.2l-86.3-35.1
			c-5.2-2.1-10.9-2.1-16.1-0.1l-88.7,35.1C337.4,1408.3,337.5,1416.9,343.5,1419.2z"/>
		<path class="st21" d="M390.3,1321.3h-36.2c-0.8,0-1.4-0.6-1.4-1.4v-36.2c0-0.8,0.6-1.4,1.4-1.4h36.2c0.8,0,1.4,0.6,1.4,1.4v36.2
			C391.7,1320.7,391.1,1321.3,390.3,1321.3z"/>
		<path class="st21" d="M515.9,1339.1h-30.3c-0.8,0-1.4-0.6-1.4-1.4v-30.3c0-0.8,0.6-1.4,1.4-1.4h30.3c0.8,0,1.4,0.6,1.4,1.4v30.3
			C517.4,1338.4,516.7,1339.1,515.9,1339.1z"/>
		<path class="st21" d="M426.5,1354.5h-25.6c-0.8,0-1.4-0.6-1.4-1.4v-25.6c0-0.8,0.6-1.4,1.4-1.4h25.6c0.8,0,1.4,0.6,1.4,1.4v25.6
			C427.9,1353.8,427.3,1354.5,426.5,1354.5z"/>
	</g>
	<g>
		<path class="st21" d="M1641.3,1942c-0.6-0.6-1.5-0.6-2.1,0c-11.7,12.2-26.8,21.7-44,27.3c6.1,10.1,9.7,22.7,9.7,36.5
			c0,32.9-20.8,59.6-46.4,59.6s-46.4-26.7-46.4-59.6c0-13.7,3.6-26.4,9.7-36.5c-17.2-5.6-32.3-15.1-44-27.3c-0.6-0.6-1.5-0.6-2.1,0
			c-14.5,16.1-23.2,36.6-23.2,58.9c0,52,47.5,94.2,106.1,94.2s106.1-42.2,106.1-94.2C1664.5,1978.6,1655.8,1958.2,1641.3,1942z"/>
		<path class="st21" d="M1558.5,1974.7c-4.1,0-8.2-0.2-12.1-0.5c-0.6,0-1.1,0.2-1.4,0.8c-3.5,6.8-5.6,16.1-5.6,26.4
			c0,20.6,8.6,37.3,19.1,37.3s19.1-16.7,19.1-37.3c0-10.3-2.1-19.7-5.6-26.4c-0.3-0.5-0.8-0.8-1.4-0.8
			C1566.6,1974.5,1562.6,1974.7,1558.5,1974.7z"/>
	</g>
	<g>
		<path class="st21" d="M2128.7,2024.8c-0.6-1.9-2.6-3-4.5-2.4l-86.5,25.6c-1.2,0.3-1.4,1.9-0.4,2.6l85.6,59.8
			c0.5,0.4,1.2,0.3,1.7,0l23.4-17.4c0.5-0.4,0.7-1,0.5-1.6L2128.7,2024.8z"/>
		<path class="st21" d="M2120.2,1996.2l-13.6-45.7c-0.2-0.8,0.2-1.6,1-1.8l18-5.3c0,0,0.1,0,0.1,0l69.6-27.3c0.7-0.3,1.1-1,0.9-1.7
			l-2.1-7.1c-0.2-0.6-0.7-1-1.4-1h-129.5c-0.6,0-1.2,0.4-1.4,1l-41.9,120.2c-0.4,1.1,0.6,2.2,1.8,1.9l96-28.5
			C2119.6,2000.1,2120.7,1998.1,2120.2,1996.2z M2088.4,1939.6c-0.1,0.1-0.2,0.2-0.3,0.3c-12.7,9.5-27-4.8-17.5-17.5
			c0.1-0.1,0.2-0.2,0.3-0.3C2083.6,1912.6,2097.8,1926.8,2088.4,1939.6z"/>
		<path class="st21" d="M2230.3,2030.4l-27-91.6c-0.2-0.8-1.1-1.2-1.9-0.9l-64,25.1c-1.7,0.7-2.7,2.6-2.1,4.4l32.2,108.6
			c0.3,1,1.4,1.3,2.2,0.7l60.1-44.7C2230.3,2031.6,2230.5,2031,2230.3,2030.4z M2188,1994.8c-0.1,0.1-0.2,0.2-0.3,0.3
			c-17.7,13.3-37.6-6.6-24.4-24.4c0.1-0.1,0.2-0.2,0.3-0.3C2181.4,1957.1,2201.3,1977,2188,1994.8z"/>
	</g>
	<path class="st21" d="M1653.6,1424.8c-15.1-26.5-15.1-52.3,0-78.8c2.6-4.6,2.7-10.1,0.3-14.8c-2.4-4.7-7-7.8-12.2-8.4
		c-32.2-3.5-55.1-16.5-70.1-40c-2.7-4.3-7.3-6.8-12-7.1c-0.1,0-0.2,0-0.4,0c-0.3,0-0.6,0-0.9,0c-0.3,0-0.6,0-0.9,0
		c-0.1,0-0.2,0-0.4,0c-4.7,0.4-9.2,2.8-12,7.1c-15,23.4-37.9,36.5-70.1,40c-5.2,0.6-9.8,3.7-12.2,8.4c-2.4,4.7-2.3,10.2,0.3,14.8
		c15.1,26.5,15.1,52.3,0,78.8c-2.6,4.7-2.7,10.3-0.2,15.1c2.5,4.7,7.3,7.8,12.6,8.2c28,2,51,15.4,70.2,40.9c2.6,3.4,6.2,5.4,10.1,6
		c0,0,0,0,0.1,0c0.3,0,0.6,0.1,1,0.1c0.3,0,0.7,0,1,0.1c0.1,0,0.2,0,0.3,0c0,0,0,0,0.1,0c0,0,0,0,0.1,0c0.1,0,0.2,0,0.3,0
		c0.3,0,0.7,0,1-0.1c0.3,0,0.7-0.1,1-0.1c0,0,0,0,0.1,0c3.9-0.6,7.6-2.6,10.1-6c19.2-25.6,42.2-38.9,70.2-40.9
		c5.3-0.4,10.1-3.5,12.6-8.2C1656.4,1435.1,1656.3,1429.4,1653.6,1424.8z M1617.4,1420.4c-22.1,5.6-41.8,17.4-58.9,35.2
		c-17.1-17.8-36.8-29.6-58.9-35.2c8.4-23.4,8.4-46.9-0.1-70.2c23.9-5.9,43.6-17.1,59-33.7c15.4,16.5,35.1,27.8,59,33.7
		C1608.9,1373.5,1608.9,1397,1617.4,1420.4z"/>
	<g>
		<path class="st21" d="M2056.5,1317.3c47.6-51.3,92.6-53.7,134.7,0.1c0.4,0.6,0.4,1.4-0.1,1.9c-43.3,43.9-88.2,41.2-134.4,0.1
			C2056,1318.8,2056,1317.9,2056.5,1317.3z"/>
		<path class="st21" d="M2144,1444.8c-13.4,5.9-26.9,5.9-40.3,0c-0.8-0.3-1.1-1.2-0.7-2l9.6-18.9c0.3-0.6,1-0.9,1.7-0.7
			c6.3,1.9,12.7,1.9,19,0c0.7-0.2,1.4,0.1,1.7,0.7l9.6,18.9C2145.1,1443.5,2144.8,1444.4,2144,1444.8z"/>
		<path class="st21" d="M2158,1475.8c-22.4,10.9-45.2,10.2-68.3,0c-0.7-0.3-1.1-1.2-0.7-2l9.3-18.6c0.3-0.7,1.1-1,1.8-0.7
			c16.3,6,32.5,6.7,47.5,0.1c0.7-0.3,1.5,0,1.9,0.7l9.2,18.6C2159,1474.6,2158.7,1475.5,2158,1475.8z"/>
		<path class="st21" d="M2135.1,1374c12.2,29.8,27.3,72.8,39.8,116.2c0.7,2.5,3.7,3.4,5.7,1.8c52.2-42.4,60.5-102.1,25.4-155.8
			c-1.3-2-4.1-2.2-5.7-0.4c-15.9,17.5-37.3,27.9-62.6,33.3C2135.5,1369.6,2134.3,1372,2135.1,1374z"/>
		<path class="st21" d="M2115.1,1374c-12.2,29.8-27.3,72.8-39.8,116.2c-0.7,2.5-3.7,3.4-5.7,1.8c-52.2-42.4-60.5-102.1-25.4-155.8
			c1.3-2,4.1-2.2,5.7-0.4c15.9,17.5,37.3,27.9,62.6,33.3C2114.7,1369.6,2115.9,1372,2115.1,1374z"/>
	</g>
	<g>
		<path class="st21" d="M3190.9,1382.5H3168c-4,0-7.2-3.2-7.2-7.2v-94.5c0-2,1.6-3.6,3.6-3.6h30.1c2,0,3.6,1.6,3.6,3.6v94.5
			C3198.1,1379.3,3194.9,1382.5,3190.9,1382.5z"/>
		<path class="st21" d="M3243.5,1382.5h-22.9c-4,0-7.2-3.2-7.2-7.2v-94.5c0-2,1.6-3.6,3.6-3.6h30.1c2,0,3.6,1.6,3.6,3.6v94.5
			C3250.7,1379.3,3247.5,1382.5,3243.5,1382.5z"/>
		<path class="st21" d="M3266,1393.4v-26c0-2,1.6-3.6,3.6-3.6h82.8c2,0,3.6,1.6,3.6,3.6v36.8c0,2-1.6,3.6-3.6,3.6h-72
			C3272.4,1407.8,3266,1401.4,3266,1393.4z"/>
		<path class="st21" d="M3299.7,1349.2h-30.1c-2,0-3.6-1.6-3.6-3.6v-64.8c0-2,1.6-3.6,3.6-3.6h30.1c2,0,3.6,1.6,3.6,3.6v64.8
			C3303.3,1347.6,3301.7,1349.2,3299.7,1349.2z"/>
		<path class="st21" d="M3352.3,1349.2h-30.1c-2,0-3.6-1.6-3.6-3.6v-64.8c0-2,1.6-3.6,3.6-3.6h30.1c2,0,3.6,1.6,3.6,3.6v64.8
			C3355.9,1347.6,3354.3,1349.2,3352.3,1349.2z"/>
		<path class="st21" d="M3270.3,1422.2c-10.3,0-18.7-8.4-18.7-18.7l0,0c0-1.8-1.5-3.2-3.2-3.2h-83.9c-2,0-3.6,1.6-3.6,3.6v43.1
			c0,1.1,0.5,2.1,1.4,2.8l44.9,35.9c9.9,7.9,23.2,10,35.1,5.6l111.4-41.7c1.4-0.5,2.3-1.9,2.3-3.4v-20.7c0-1.8-1.5-3.2-3.2-3.2
			H3270.3z"/>
	</g>
	<path class="st21" d="M536,1964.2V1928c0-0.8-0.6-1.4-1.4-1.4h-36.2c-0.8,0-1.4,0.6-1.4,1.4v32.3l-53.8-31.1l22.3-22.3
		c0.6-0.6,0.6-1.5,0-2l-25.6-25.6c-0.6-0.6-1.5-0.6-2,0l-25.6,25.6c-0.6,0.6-0.6,1.5,0,2l22.3,22.3l-53.6,30.9V1928
		c0-0.8-0.6-1.4-1.4-1.4h-36.2c-0.8,0-1.4,0.6-1.4,1.4v36.2c0,0.8,0.6,1.4,1.4,1.4h33.6l0,65.9c0,0.1,0,0.2,0,0.4h-33.7
		c-0.8,0-1.4,0.6-1.4,1.4v36.2c0,0.8,0.6,1.4,1.4,1.4h36.2c0.8,0,1.4-0.6,1.4-1.4v-33.2l53.7,31l-22.4,22.4c-0.6,0.6-0.6,1.5,0,2
		l25.6,25.6c0.6,0.6,1.5,0.6,2,0l25.6-25.6c0.6-0.6,0.6-1.5,0-2l-22.4-22.4l53.9-31.1v33.3c0,0.8,0.6,1.4,1.4,1.4h36.2
		c0.8,0,1.4-0.6,1.4-1.4v-36.2c0-0.8-0.6-1.4-1.4-1.4h-33.9c0-0.1,0-0.2,0-0.4l0-65.9h33.9C535.4,1965.7,536,1965,536,1964.2z
		 M438.8,1963.9l-30.3,19.5c-0.4,0.3-0.7,0.7-0.7,1.2v31.9c0,0.8-0.6,1.4-1.4,1.4h-12.9c-0.8,0-1.4-0.6-1.4-1.4v-40.6l-0.3-0.5
		l38.5-24.8c0.7-0.4,1.6-0.2,2,0.4l7,10.8C439.6,1962.5,439.4,1963.4,438.8,1963.9z"/>
	<path class="st21" d="M1096.6,1995.8c-9.7-5.8-19-1.2-27.9,5.7c2.2-8.1,3.5-15.8,3.5-22.7c0-44.4-36-80.4-80.4-80.4
		s-80.4,36-80.4,80.4c0,6.9,1.2,14.6,3.4,22.7c-8.9-6.9-18.2-11.4-27.8-5.6c-13.6,9.2-20.6,26-16.8,41.3c0.7,2.7,4,3.6,6,1.6
		c3.8-3.7,6.7-6.3,11.6-8c8.6-1.8,4.7,18.9,19.8,26.2c13.1,1.1,21.2-6.8,25.3-13.8c17.4,29.9,41.7,55.1,58.9,55.1
		c16.8,0,41.2-25.4,58.8-55.4c4,7.1,12.2,15.2,25.5,14c15.1-7.3,11.2-28,19.8-26.2c4.9,1.7,7.8,4.3,11.6,8c2,1.9,5.3,1,6-1.6
		C1117.2,2021.8,1110.2,2005,1096.6,1995.8z M968.8,1986.5c-7.3,2.8-17.2-5.3-22.1-18c-4.8-12.7-2.8-25.3,4.5-28.1s17.2,5.3,22.1,18
		C978.2,1971.1,976.2,1983.7,968.8,1986.5z M1036.9,1968.5c-4.8,12.7-14.7,20.8-22.1,18c-7.3-2.8-9.4-15.4-4.5-28.1
		s14.7-20.8,22.1-18C1039.7,1943.2,1041.7,1955.8,1036.9,1968.5z"/>
	<g>
		<path class="st21" d="M2736.4,1944.6c-1.6-24.9-7.6-46.9-17.4-66.6c-0.6-1.2-2.4-1-2.7,0.3c-4.2,19.1-8.8,35.5-14,48.8
			c-3.5-0.6-7-0.9-10.6-0.9s-7.2,0.3-10.6,0.9c-5.2-13.3-9.8-29.7-14-48.8c-0.3-1.3-2.1-1.5-2.7-0.3c-9.8,19.7-15.8,41.7-17.4,66.6
			c-13.1,12.8-21.4,31.1-21.4,51.4c0,25.4,12.9,47.7,32.1,59.9v29.6c0,18.7,15.3,33.9,33.9,33.9c18.7,0,33.9-15.3,33.9-33.9v-29.6
			c19.3-12.2,32.1-34.4,32.1-59.9C2757.8,1975.7,2749.6,1957.4,2736.4,1944.6z M2669.9,2036.9c-7.9-1.6-20.2-7.7-22.3-10.7
			c-6.6-7.1-10.5-22.7-8.9-40.6c0.7-8.1,3.6-4,5-1.5c10.6,19.6,20.5,36.4,28.9,48.4C2674.1,2034.6,2672.3,2037.4,2669.9,2036.9z
			 M2735.9,2026.2c-2.1,3-14.4,9.1-22.3,10.7c-2.4,0.5-4.1-2.3-2.7-4.4c8.4-12,18.3-28.8,28.9-48.4c1.4-2.5,4.3-6.6,5,1.5
			C2746.4,2003.5,2742.4,2019.1,2735.9,2026.2z"/>
		<g>
			<path class="st21" d="M2753.7,2044.2c2.6,3.7,12.9,18.6,18.6,31c0.4,0.8,1.4,1.1,2.2,0.5c47.5-35.6,41.3-91.2,17-128.4
				c-0.8-1.2-2.6-0.6-2.6,0.8c0.2,21.6-4.5,42.3-21.7,56.3c-0.3,0.2-0.5,0.6-0.5,0.9c-2.2,19.1-7,29.9-12.9,37.1
				C2753.3,2043,2753.3,2043.7,2753.7,2044.2z"/>
			<path class="st21" d="M2629.8,2044.2c-2.6,3.7-12.9,18.6-18.6,31c-0.4,0.8-1.4,1.1-2.2,0.5c-47.5-35.6-41.3-91.2-17-128.4
				c0.8-1.2,2.6-0.6,2.6,0.8c-0.2,21.6,4.5,42.3,21.7,56.3c0.3,0.2,0.5,0.6,0.5,0.9c2.2,19.1,7,29.9,12.9,37.1
				C2630.1,2043,2630.2,2043.7,2629.8,2044.2z"/>
		</g>
	</g>
	<path class="st21" d="M3353.1,1923.9c-0.7-2.1-2.4-3.7-4.6-4.3c-35.3-9.1-68.4,4.4-90.2,35.7c-21.8-31.3-54.8-44.8-90.2-35.7
		c-2.2,0.6-3.9,2.2-4.6,4.3c-15.4,47.7,8.1,75.5,41.5,91.3c-13.7,11.1-16,24.8-13.2,39.8c0.2,0.8,0.7,1.5,1.5,1.9
		c16.1,6.8,34,8.1,45-3.7c-7,27.4-12.1,48.9-9,55.6c4.6,9.9,28.3-46.8,29-56.8c0.7,10,24.3,66.6,29,56.8c3.1-6.7-2-28.2-9-55.6
		c11,11.7,28.8,10.5,45,3.7c0.8-0.3,1.4-1,1.5-1.9c2.9-14.9,0.5-28.7-13.2-39.8C3345,1999.4,3368.5,1971.6,3353.1,1923.9z
		 M3258.4,2013.4c-16.8,0-28.8-10.4-31.6-18.8c25.8,0.4,31.6-24,31.6-24s5.7,24.4,31.6,24
		C3287.2,2002.9,3275.2,2013.4,3258.4,2013.4z"/>
</g>
</svg>
